<svg width="40" height="14" viewBox="0 0 40 14" fill="none" xmlns="http://www.w3.org/2000/svg">
<path fill-rule="evenodd" clip-rule="evenodd" d="M25.8586 3.33485C26.9223 3.31812 27.6933 3.55059 28.292 3.79143L28.5855 3.9294L29.0254 1.34379C28.3815 1.10212 27.3722 0.842896 26.1128 0.842896C22.9 0.842896 20.6355 2.46099 20.618 4.77984C20.5971 6.49327 22.231 7.44991 23.4653 8.02105C24.7322 8.60641 25.157 8.97853 25.1511 9.50117C25.1411 10.2998 24.141 10.666 23.2069 10.666C21.9049 10.666 21.2134 10.4862 20.1455 10.0414L19.7266 9.85071L19.2691 12.5208C20.0301 12.8544 21.4341 13.1413 22.8917 13.1563C26.3093 13.1563 28.5303 11.5574 28.5537 9.07971C28.568 7.72419 27.7008 6.68978 25.8218 5.84101C24.6845 5.28743 23.9888 4.91949 23.9955 4.36089C23.9955 3.86501 24.5859 3.33485 25.8586 3.33485ZM5.08258 0.945679C5.76243 0.971602 6.31016 1.18818 6.49914 1.91486L7.59543 7.18476C6.51838 4.42772 3.92273 2.13479 0 1.18317L0.0418113 0.945679H5.08258ZM16.0162 1.04773L13.9834 12.9773H17.2346L19.2691 1.04773H16.0162ZM11.2573 1.0611L8.07292 9.19674L7.73341 7.96832C7.10541 6.4882 5.32258 4.36252 3.2295 3.02289L6.14124 12.9715L9.58147 12.9656L14.7017 1.05859L11.2573 1.0611ZM34.8572 1.06116H37.3692L40 12.9841H36.9837C36.9837 12.9841 36.6844 11.6135 36.5874 11.197C36.3373 11.197 35.2904 11.1956 34.3047 11.1943C33.428 11.1931 32.5998 11.192 32.4238 11.192C32.2975 11.514 31.7406 12.9841 31.7406 12.9841H28.3263L33.1538 2.05125C33.4967 1.27356 34.077 1.06116 34.8572 1.06116ZM34.6548 5.41622C34.6548 5.41622 33.6271 8.06538 33.3595 8.75025H36.0605L35.3071 5.30584L35.088 4.27728C35.0058 4.49697 34.8961 4.7821 34.8076 5.01225C34.7152 5.25253 34.6459 5.43288 34.6548 5.41622Z" fill="white"/>
</svg>
